<?xml version="1.0" encoding="utf-8"?>
<!DOCTYPE svg PUBLIC "-//W3C//DTD SVG 1.1//EN" "http://www.w3.org/Graphics/SVG/1.1/DTD/svg11.dtd">
<svg version="1.1" id="Layer_1" xmlns="http://www.w3.org/2000/svg" xmlns:xlink="http://www.w3.org/1999/xlink" x="0px" y="0px"
	 width="60.98px" height="52.904px" viewBox="0 0 60.98 52.904" enable-background="new 0 0 60.98 52.904" xml:space="preserve">
<polygon points="24.872,7.351 32.218,0 39.569,7.351 "/>
<path d="M8.866,14.577c0-0.191,0.172-0.364,0.363-0.364h1.626c0.191,0,0.364,0.173,0.364,0.364v5.529
	c0.344-0.134,0.938-0.344,1.703-0.344c2.276,0,3.788,1.779,3.788,4.018c0,2.201-1.588,4.019-3.674,4.019
	c-1.607,0-2.507-1.148-2.507-1.148l-0.191,0.594c-0.057,0.21-0.191,0.363-0.363,0.363H9.229c-0.191,0-0.363-0.172-0.363-0.363
	V14.577z M12.75,25.732c1.015,0,1.741-0.881,1.741-1.952s-0.784-1.951-1.855-1.951c-0.957,0-1.493,0.439-1.493,0.439v2.22
	C11.276,24.947,11.736,25.732,12.75,25.732z"/>
<path d="M24.379,22.767c0.766,0,1.397,0.21,1.397,0.21c0.019-0.976-0.287-1.32-0.995-1.32s-1.703,0.153-2.144,0.287
	c-0.268,0.077-0.401-0.096-0.439-0.344l-0.173-0.995c-0.057-0.287,0.096-0.421,0.269-0.479c0.152-0.058,1.377-0.363,2.602-0.363
	c2.393,0,2.947,1.243,2.947,3.329v4.152c0,0.191-0.172,0.363-0.363,0.363H26.79c-0.134,0-0.229-0.058-0.325-0.268l-0.229-0.517
	c-0.44,0.401-1.148,0.976-2.334,0.976c-1.531,0-2.584-0.995-2.584-2.621C21.317,23.818,22.428,22.767,24.379,22.767z M24.418,26.172
	c0.612,0,1.205-0.517,1.32-0.746v-1.052c0,0-0.517-0.229-1.072-0.229c-0.746,0-1.243,0.421-1.243,1.033
	C23.423,25.751,23.824,26.172,24.418,26.172z"/>
<path d="M36.966,19.763c1.186,0,2.104,0.478,2.832,1.358c0.134,0.172,0.096,0.401-0.096,0.535l-0.881,0.842
	c-0.172,0.153-0.344,0.058-0.479-0.057c-0.306-0.345-0.784-0.612-1.32-0.612c-1.033,0-1.875,0.88-1.875,1.951
	c0,1.091,0.823,1.952,1.856,1.952c0.822,0,1.187-0.402,1.53-0.728c0.135-0.134,0.325-0.172,0.479-0.058l0.823,0.708
	c0.191,0.153,0.268,0.345,0.134,0.536c-0.65,1.015-1.665,1.607-3.023,1.607c-2.162,0-4.057-1.723-4.057-4.019
	C32.89,21.522,34.822,19.763,36.966,19.763z"/>
<path d="M45.074,14.577c0-0.191,0.172-0.364,0.363-0.364h1.626c0.191,0,0.364,0.173,0.364,0.364v8.285l2.641-2.679
	c0.134-0.115,0.268-0.23,0.478-0.23h1.741c0.326,0,0.44,0.345,0.249,0.556l-2.851,2.908l3.405,3.654
	c0.191,0.211,0.077,0.536-0.248,0.536h-2.066c-0.115,0-0.269-0.076-0.326-0.153l-3.022-3.444v3.234c0,0.191-0.173,0.363-0.364,0.363
	h-1.626c-0.191,0-0.363-0.172-0.363-0.363V14.577z"/>
<path d="M0.995,41.52h-0.65C0.153,41.52,0,41.348,0,41.156v-1.282c0-0.211,0.153-0.364,0.345-0.364h0.65v-2.123
	c0-0.191,0.172-0.364,0.363-0.364l1.569-0.019c0.191,0,0.345,0.172,0.345,0.363v2.143h1.684c0.211,0,0.363,0.153,0.363,0.364v1.282
	c0,0.191-0.152,0.363-0.363,0.363H3.272v3.062c0,0.535,0.287,0.612,0.593,0.612c0.325,0,0.728-0.134,0.938-0.211
	c0.211-0.076,0.364,0.02,0.421,0.211l0.383,1.205c0.077,0.191-0.019,0.383-0.21,0.459c-0.096,0.058-1.34,0.498-2.277,0.498
	c-1.474,0-2.124-0.919-2.124-2.469V41.52z"/>
<path d="M13.965,39.319c2.162,0,3.923,1.837,3.923,3.999c0,2.2-1.761,4.037-3.923,4.037s-3.923-1.837-3.923-4.037
	C10.042,41.156,11.803,39.319,13.965,39.319z M13.965,45.289c1.014,0,1.837-0.881,1.837-1.971c0-1.072-0.823-1.933-1.837-1.933
	c-1.033,0-1.837,0.86-1.837,1.933C12.128,44.408,12.932,45.289,13.965,45.289z"/>
<path d="M31.102,41.52h-0.65c-0.191,0-0.345-0.172-0.345-0.363v-1.282c0-0.211,0.153-0.364,0.345-0.364h0.65v-2.123
	c0-0.191,0.172-0.364,0.363-0.364l1.569-0.019c0.191,0,0.345,0.172,0.345,0.363v2.143h1.684c0.211,0,0.363,0.153,0.363,0.364v1.282
	c0,0.191-0.152,0.363-0.363,0.363h-1.684v3.062c0,0.535,0.287,0.612,0.593,0.612c0.325,0,0.728-0.134,0.938-0.211
	c0.211-0.076,0.364,0.02,0.421,0.211l0.383,1.205c0.077,0.191-0.019,0.383-0.21,0.459c-0.096,0.058-1.34,0.498-2.277,0.498
	c-1.474,0-2.124-0.919-2.124-2.469V41.52z"/>
<path d="M44.07,39.319c2.162,0,3.923,1.837,3.923,3.999c0,2.2-1.761,4.037-3.923,4.037s-3.923-1.837-3.923-4.037
	C40.147,41.156,41.908,39.319,44.07,39.319z M44.07,45.289c1.014,0,1.837-0.881,1.837-1.971c0-1.072-0.823-1.933-1.837-1.933
	c-1.033,0-1.837,0.86-1.837,1.933C42.233,44.408,43.037,45.289,44.07,45.289z"/>
<path d="M55.489,52.541c0,0.229-0.115,0.363-0.46,0.363h-1.53c-0.191,0-0.363-0.172-0.363-0.363V39.874
	c0-0.211,0.172-0.364,0.363-0.364h0.746c0.134,0,0.268,0.077,0.325,0.23l0.249,0.631c0.287-0.383,1.225-1.052,2.468-1.052
	c2.105,0,3.693,1.817,3.693,4.018c0,2.258-1.722,4.019-3.788,4.019c-0.747,0-1.436-0.268-1.703-0.421V52.541z M56.886,45.289
	c1.071,0,1.856-0.881,1.856-1.952s-0.728-1.951-1.78-1.951c-0.976,0-1.454,0.765-1.568,1.167v2.296
	C55.394,44.849,55.929,45.289,56.886,45.289z"/>
</svg>
